<svg fill="none" xmlns="http://www.w3.org/2000/svg" viewBox="0 0 522 372">
  <path fill="#fff" d="M0 0h522v371.2H0z"/>
  <path d="m227.28 131.709-53.28 53.6 76.306-61.083-23.026 7.483Z" fill="#000" stroke="#000" stroke-width=".1279"/>
  <path d="m250.114 185.693-75.858-61.211 22.45 7.1 53.408 54.111Z" fill="#000" stroke="#000" stroke-width=".1279"/>
  <path fill-rule="evenodd" clip-rule="evenodd" d="M212.057 185.321c7.312 0 13.24-6.002 13.24-13.406 0-7.404-5.928-13.406-13.24-13.406s-13.24 6.002-13.24 13.406c0 7.404 5.928 13.406 13.24 13.406Zm.192-3.391c5.44 0 9.85-4.47 9.85-9.983 0-5.514-4.41-9.984-9.85-9.984-5.44 0-9.85 4.47-9.85 9.984 0 5.513 4.41 9.983 9.85 9.983Z" fill="#000"/>
  <circle cx="212.057" cy="171.877" r="1.599" fill="#000"/>
  <circle cx="395.599" cy="177.599" r="1.599" fill="#000"/>
  <circle cx="276.599" cy="177.599" r="1.599" fill="#000"/>
  <path d="m211.903 174.942-2.571-1.553-3.257 4.929 2.415 1.52 3.413-4.896Z" fill="#000" stroke="#000" stroke-width=".1134"/>
  <path d="m282.774 173.475-1.597-1.65-3.139 3.246 1.49 1.597 3.246-3.193ZM401.736 172.65 400.14 171l-3.14 3.246 1.49 1.597 3.246-3.193Z" fill="#000" stroke="#000" stroke-width=".1064"/>
  <path d="M250.47 177.719c0-1.624.325-3.062.974-4.315.65-1.268 1.555-2.258 2.715-2.969 1.16-.712 2.467-1.068 3.92-1.068 1.903 0 3.473.441 4.71 1.323 1.253.881 2.165 2.103 2.738 3.665h-.464c-.495-1.376-1.338-2.482-2.529-3.317-1.191-.835-2.676-1.253-4.455-1.253-1.33 0-2.536.325-3.619.974-1.082.634-1.941 1.555-2.575 2.761-.619 1.191-.928 2.591-.928 4.199 0 1.593.309 2.985.928 4.176.634 1.191 1.493 2.112 2.575 2.761 1.098.634 2.305.951 3.619.951 1.779 0 3.264-.41 4.455-1.229 1.191-.835 2.034-1.941 2.529-3.318h.464c-.573 1.562-1.485 2.784-2.738 3.666-1.237.866-2.807 1.299-4.71 1.299-1.453 0-2.76-.348-3.92-1.044-1.16-.712-2.065-1.694-2.715-2.946-.649-1.269-.974-2.707-.974-4.316Zm25.626 8.329c-1.501 0-2.846-.348-4.037-1.044-1.176-.711-2.096-1.701-2.761-2.969-.665-1.269-.998-2.707-.998-4.316 0-1.608.333-3.047.998-4.315.665-1.268 1.585-2.25 2.761-2.946 1.191-.712 2.536-1.067 4.037-1.067 1.5 0 2.838.355 4.013 1.067 1.191.696 2.119 1.678 2.784 2.946.665 1.268.998 2.707.998 4.315 0 1.609-.333 3.047-.998 4.316-.665 1.268-1.593 2.258-2.784 2.969-1.175.696-2.513 1.044-4.013 1.044Zm0-.417c1.361 0 2.598-.318 3.712-.952 1.113-.649 1.987-1.57 2.621-2.76.65-1.207.975-2.607.975-4.2s-.325-2.985-.975-4.176c-.634-1.206-1.508-2.126-2.621-2.76-1.114-.65-2.351-.975-3.712-.975-1.362 0-2.599.325-3.712.975-1.114.634-1.996 1.554-2.645 2.76-.634 1.191-.951 2.583-.951 4.176s.317 2.993.951 4.2c.649 1.19 1.531 2.111 2.645 2.76 1.113.634 2.35.952 3.712.952Zm25.705-15.637v15.869h-.464v-14.732l-6.566 14.732h-.464l-6.588-14.732v14.732h-.464v-15.869h.464l6.82 15.265 6.798-15.265h.464Zm13.291 4.037c0 1.5-.441 2.621-1.323 3.364-.881.742-2.181 1.113-3.897 1.113h-3.666v7.355h-.464V169.53h4.13c1.794 0 3.108.394 3.944 1.183.85.789 1.276 1.895 1.276 3.318Zm-5.22 3.99c1.67 0 2.876-.348 3.619-1.044.758-.696 1.137-1.678 1.137-2.946 0-1.331-.372-2.336-1.114-3.016-.742-.681-1.956-1.021-3.642-1.021h-3.666v8.027h3.666Zm17.175 3.341h-8.074l-1.716 4.501h-.534l6.055-15.846h.464l6.032 15.846h-.533l-1.694-4.501Zm-.162-.418-3.875-10.185-3.874 10.185h7.749Zm9.525 5.081c-1.036 0-1.941-.186-2.714-.557-.758-.371-1.346-.858-1.763-1.461-.418-.619-.665-1.284-.743-1.996h.464c.078.542.271 1.083.58 1.624.325.542.828 1.006 1.508 1.392.696.387 1.586.58 2.668.58.866 0 1.632-.162 2.297-.487.665-.34 1.176-.789 1.531-1.345.356-.557.534-1.176.534-1.856 0-.882-.201-1.578-.603-2.088-.402-.526-.905-.913-1.508-1.16-.588-.248-1.385-.503-2.39-.766-1.052-.278-1.895-.557-2.529-.835-.634-.279-1.175-.704-1.624-1.276-.433-.588-.649-1.377-.649-2.367 0-.711.193-1.376.58-1.995.402-.634.966-1.137 1.693-1.508.743-.371 1.586-.557 2.529-.557.959 0 1.786.17 2.482.511.696.34 1.238.773 1.624 1.299.403.51.666 1.052.789 1.624h-.464c-.108-.449-.332-.905-.673-1.369-.34-.464-.827-.851-1.461-1.16-.634-.325-1.4-.487-2.297-.487-.789 0-1.516.155-2.181.464-.649.294-1.175.719-1.577 1.276-.387.541-.58 1.175-.58 1.902 0 .897.201 1.617.603 2.158.417.526.928.92 1.531 1.183.603.248 1.408.503 2.413.766 1.052.278 1.887.557 2.505.835.635.263 1.168.68 1.601 1.253.433.557.65 1.322.65 2.297 0 .68-.186 1.337-.557 1.972-.356.634-.897 1.152-1.624 1.554-.727.387-1.608.58-2.645.58Zm12.439 0c-1.037 0-1.942-.186-2.715-.557-.758-.371-1.345-.858-1.763-1.461-.418-.619-.665-1.284-.742-1.996h.464c.077.542.27 1.083.58 1.624.324.542.827 1.006 1.508 1.392.696.387 1.585.58 2.668.58.866 0 1.631-.162 2.296-.487.665-.34 1.176-.789 1.532-1.345.355-.557.533-1.176.533-1.856 0-.882-.201-1.578-.603-2.088-.402-.526-.905-.913-1.508-1.16-.588-.248-1.384-.503-2.39-.766-1.051-.278-1.894-.557-2.528-.835-.635-.279-1.176-.704-1.624-1.276-.434-.588-.65-1.377-.65-2.367 0-.711.193-1.376.58-1.995.402-.634.967-1.137 1.694-1.508.742-.371 1.585-.557 2.528-.557.959 0 1.787.17 2.483.511.696.34 1.237.773 1.624 1.299.402.51.665 1.052.789 1.624h-.464c-.109-.449-.333-.905-.673-1.369-.341-.464-.828-.851-1.462-1.16-.634-.325-1.4-.487-2.297-.487-.788 0-1.515.155-2.18.464-.65.294-1.176.719-1.578 1.276-.387.541-.58 1.175-.58 1.902 0 .897.201 1.617.603 2.158.418.526.928.92 1.531 1.183.604.248 1.408.503 2.413.766 1.052.278 1.887.557 2.506.835.634.263 1.167.68 1.601 1.253.433.557.649 1.322.649 2.297 0 .68-.185 1.337-.557 1.972-.355.634-.897 1.152-1.624 1.554-.727.387-1.608.58-2.644.58Zm19.167 0c-1.037 0-1.941-.186-2.715-.557-.758-.371-1.345-.858-1.763-1.461-.417-.619-.665-1.284-.742-1.996h.464c.077.542.27 1.083.58 1.624.325.542.827 1.006 1.508 1.392.696.387 1.585.58 2.668.58.866 0 1.631-.162 2.297-.487.665-.34 1.175-.789 1.531-1.345.355-.557.533-1.176.533-1.856 0-.882-.201-1.578-.603-2.088-.402-.526-.905-.913-1.508-1.16-.588-.248-1.384-.503-2.389-.766-1.052-.278-1.895-.557-2.529-.835-.634-.279-1.176-.704-1.624-1.276-.433-.588-.65-1.377-.65-2.367 0-.711.193-1.376.58-1.995.402-.634.967-1.137 1.694-1.508.742-.371 1.585-.557 2.529-.557.958 0 1.786.17 2.482.511.696.34 1.237.773 1.624 1.299.402.51.665 1.052.789 1.624h-.464c-.109-.449-.333-.905-.673-1.369-.34-.464-.828-.851-1.462-1.16-.634-.325-1.399-.487-2.296-.487-.789 0-1.516.155-2.181.464-.65.294-1.176.719-1.578 1.276-.387.541-.58 1.175-.58 1.902 0 .897.201 1.617.603 2.158.418.526.928.92 1.532 1.183.603.248 1.407.503 2.412.766 1.052.278 1.887.557 2.506.835.634.263 1.168.68 1.601 1.253.433.557.649 1.322.649 2.297 0 .68-.185 1.337-.556 1.972-.356.634-.898 1.152-1.624 1.554-.727.387-1.609.58-2.645.58Zm17.31-11.994c0 1.5-.441 2.621-1.322 3.364-.882.742-2.181 1.113-3.898 1.113h-3.666v7.355h-.464V169.53h4.13c1.794 0 3.109.394 3.944 1.183.851.789 1.276 1.895 1.276 3.318Zm-5.22 3.99c1.67 0 2.877-.348 3.619-1.044.758-.696 1.137-1.678 1.137-2.946 0-1.331-.371-2.336-1.114-3.016-.742-.681-1.956-1.021-3.642-1.021h-3.666v8.027h3.666Zm15.343 8.027c-1.501 0-2.846-.348-4.037-1.044-1.176-.711-2.096-1.701-2.761-2.969-.665-1.269-.998-2.707-.998-4.316 0-1.608.333-3.047.998-4.315.665-1.268 1.585-2.25 2.761-2.946 1.191-.712 2.536-1.067 4.037-1.067 1.5 0 2.838.355 4.013 1.067 1.191.696 2.119 1.678 2.784 2.946.665 1.268.998 2.707.998 4.315 0 1.609-.333 3.047-.998 4.316-.665 1.268-1.593 2.258-2.784 2.969-1.175.696-2.513 1.044-4.013 1.044Zm0-.417c1.361 0 2.598-.318 3.712-.952 1.113-.649 1.987-1.57 2.621-2.76.65-1.207.975-2.607.975-4.2s-.325-2.985-.975-4.176c-.634-1.206-1.508-2.126-2.621-2.76-1.114-.65-2.351-.975-3.712-.975-1.361 0-2.599.325-3.712.975-1.114.634-1.996 1.554-2.645 2.76-.634 1.191-.951 2.583-.951 4.176s.317 2.993.951 4.2c.649 1.19 1.531 2.111 2.645 2.76 1.113.634 2.351.952 3.712.952Zm20.091.232-4.362-7.123h-4.106v7.123h-.464V169.53h4.083c1.794 0 3.124.41 3.99 1.229.882.82 1.323 1.941 1.323 3.364 0 1.315-.372 2.367-1.114 3.156-.742.788-1.802 1.26-3.178 1.415l4.408 7.169h-.58Zm-4.803-7.564c1.593 0 2.784-.379 3.573-1.136.804-.758 1.206-1.771 1.206-3.04 0-2.753-1.608-4.129-4.825-4.129h-3.619v8.305h3.665Zm16.754-8.769v.417h-4.756v15.916h-.464v-15.916h-4.756v-.417h9.976Zm6.908 16.495c-1.037 0-1.942-.186-2.715-.557-.758-.371-1.345-.858-1.763-1.461-.418-.619-.665-1.284-.742-1.996h.464c.077.542.27 1.083.58 1.624.324.542.827 1.006 1.508 1.392.696.387 1.585.58 2.668.58.866 0 1.631-.162 2.296-.487.665-.34 1.176-.789 1.532-1.345.355-.557.533-1.176.533-1.856 0-.882-.201-1.578-.603-2.088-.402-.526-.905-.913-1.508-1.16-.588-.248-1.384-.503-2.39-.766-1.051-.278-1.894-.557-2.528-.835-.635-.279-1.176-.704-1.624-1.276-.434-.588-.65-1.377-.65-2.367 0-.711.193-1.376.58-1.995.402-.634.967-1.137 1.694-1.508.742-.371 1.585-.557 2.528-.557.959 0 1.787.17 2.483.511.696.34 1.237.773 1.624 1.299.402.51.665 1.052.789 1.624h-.464c-.109-.449-.333-.905-.673-1.369-.341-.464-.828-.851-1.462-1.16-.634-.325-1.4-.487-2.297-.487-.788 0-1.515.155-2.18.464-.65.294-1.176.719-1.578 1.276-.387.541-.58 1.175-.58 1.902 0 .897.201 1.617.603 2.158.418.526.928.92 1.531 1.183.604.248 1.408.503 2.413.766 1.052.278 1.887.557 2.506.835.634.263 1.167.68 1.601 1.253.433.557.649 1.322.649 2.297 0 .68-.185 1.337-.557 1.972-.355.634-.897 1.152-1.624 1.554-.727.387-1.608.58-2.644.58ZM217.33 164.515l-2.639 6.202-2.31-1.627 4.949-4.575Z" fill="#000"/>
</svg>
