<svg fill="none" xmlns="http://www.w3.org/2000/svg" viewBox="0 0 523 372">
  <path fill="#fff" d="M0 0h522.844v371.8H0z"/>
  <path d="m259.596 151.952-42.373 42.628L277.909 146l-18.313 5.952Z" fill="#000" stroke="#000" stroke-width=".1017"/>
  <path d="M277.553 194.682 217.223 146l17.855 5.646 42.475 43.036Z" fill="#000" stroke="#000" stroke-width=".1017"/>
  <path fill-rule="evenodd" clip-rule="evenodd" d="M247.49 194.589c5.815 0 10.529-4.774 10.529-10.662 0-5.888-4.714-10.661-10.529-10.661-5.816 0-10.53 4.773-10.53 10.661s4.714 10.662 10.53 10.662Zm.152-2.697c4.327 0 7.834-3.555 7.834-7.94s-3.507-7.939-7.834-7.939c-4.326 0-7.834 3.554-7.834 7.939s3.508 7.94 7.834 7.94Z" fill="#000"/>
  <circle cx="247.49" cy="183.897" r="1.2717" fill="#000"/>
  <circle cx="304.671" cy="169.132" r="1.6938" fill="#000"/>
  <circle cx="142.691" cy="169.132" r="1.6938" fill="#000"/>
  <path d="m247.367 186.334-2.045-1.235-2.59 3.921 1.92 1.208 2.715-3.894Z" fill="#000" stroke="#000" stroke-width=".0902"/>
  <path d="m149.19 164.422-1.691-1.748-3.326 3.439 1.578 1.691 3.439-3.382ZM311.17 164.422l-1.691-1.748-3.326 3.439 1.578 1.691 3.439-3.382Z" fill="#000" stroke="#000" stroke-width=".1127"/>
  <path d="M115.833 169.138c0-1.72.344-3.243 1.032-4.571.688-1.343 1.646-2.391 2.875-3.145s2.613-1.131 4.153-1.131c2.015 0 3.678.467 4.989 1.401 1.327.934 2.293 2.228 2.9 3.883h-.492c-.524-1.458-1.417-2.629-2.679-3.514-1.261-.885-2.834-1.327-4.718-1.327-1.409 0-2.687.344-3.834 1.032-1.146.672-2.056 1.646-2.727 2.924-.656 1.262-.983 2.745-.983 4.448 0 1.688.327 3.162.983 4.424.671 1.261 1.581 2.236 2.727 2.924 1.164.672 2.442 1.008 3.834 1.008 1.884 0 3.457-.434 4.718-1.303 1.262-.884 2.155-2.056 2.679-3.514h.492c-.607 1.655-1.573 2.949-2.9 3.883-1.311.917-2.974 1.376-4.989 1.376-1.54 0-2.924-.368-4.153-1.106-1.229-.753-2.187-1.794-2.875-3.121-.688-1.343-1.032-2.867-1.032-4.571Zm27.144 8.823c-1.589 0-3.015-.369-4.276-1.106-1.245-.754-2.22-1.802-2.925-3.146-.704-1.343-1.056-2.867-1.056-4.571 0-1.703.352-3.227 1.056-4.571.705-1.343 1.68-2.383 2.925-3.121 1.261-.753 2.687-1.13 4.276-1.13s3.006.377 4.251 1.13c1.262.738 2.245 1.778 2.949 3.121.705 1.344 1.057 2.868 1.057 4.571 0 1.704-.352 3.228-1.057 4.571-.704 1.344-1.687 2.392-2.949 3.146-1.245.737-2.662 1.106-4.251 1.106Zm0-.443c1.441 0 2.752-.335 3.932-1.007 1.179-.688 2.105-1.663 2.777-2.925.688-1.277 1.032-2.76 1.032-4.448 0-1.687-.344-3.162-1.032-4.423-.672-1.278-1.598-2.253-2.777-2.924-1.18-.689-2.491-1.033-3.932-1.033-1.442 0-2.753.344-3.932 1.033-1.18.671-2.114 1.646-2.802 2.924-.671 1.261-1.007 2.736-1.007 4.423 0 1.688.336 3.171 1.007 4.448.688 1.262 1.622 2.237 2.802 2.925 1.179.672 2.49 1.007 3.932 1.007Zm27.228-16.563v16.809h-.491v-15.605l-6.955 15.605h-.491l-6.98-15.605v15.605h-.491v-16.809h.491l7.225 16.17 7.201-16.17h.491Zm14.079 4.276c0 1.589-.467 2.777-1.401 3.563-.934.787-2.31 1.18-4.129 1.18h-3.883v7.79h-.491v-17.301h4.374c1.901 0 3.293.418 4.178 1.254.901.835 1.352 2.007 1.352 3.514Zm-5.53 4.227c1.77 0 3.048-.369 3.834-1.106.803-.737 1.204-1.778 1.204-3.121 0-1.409-.393-2.474-1.179-3.195-.787-.721-2.073-1.081-3.859-1.081h-3.883v8.503h3.883Zm18.193 3.539h-8.552l-1.818 4.767h-.565l6.414-16.784h.491l6.39 16.784h-.566l-1.794-4.767Zm-.172-.443-4.104-10.788-4.104 10.788h8.208Zm10.09 5.382c-1.097 0-2.056-.196-2.875-.59-.803-.393-1.425-.909-1.867-1.548-.443-.655-.705-1.36-.787-2.113h.492c.082.573.286 1.147.614 1.72.344.573.877 1.065 1.597 1.474.738.41 1.68.615 2.826.615.918 0 1.729-.172 2.433-.516.705-.361 1.246-.836 1.622-1.426.377-.589.566-1.245.566-1.966 0-.933-.213-1.671-.639-2.211-.426-.557-.959-.967-1.598-1.229-.622-.262-1.466-.533-2.531-.811-1.114-.295-2.007-.59-2.679-.885-.671-.295-1.245-.745-1.72-1.351-.459-.623-.688-1.458-.688-2.507 0-.754.205-1.458.614-2.113.426-.672 1.024-1.205 1.794-1.598.787-.393 1.68-.59 2.679-.59 1.016 0 1.892.181 2.63.541.737.361 1.31.819 1.72 1.376.426.541.704 1.114.835 1.721h-.491c-.115-.476-.352-.959-.713-1.45-.36-.492-.876-.901-1.548-1.229-.672-.344-1.483-.516-2.433-.516-.835 0-1.606.164-2.31.491-.688.312-1.245.762-1.671 1.352-.41.573-.614 1.245-.614 2.015 0 .95.213 1.712.639 2.286.442.557.983.974 1.621 1.253.639.262 1.491.532 2.556.811 1.114.295 1.999.59 2.654.884.672.279 1.237.721 1.696 1.328.459.589.688 1.4.688 2.432 0 .721-.197 1.418-.59 2.089-.377.672-.95 1.221-1.72 1.647-.77.409-1.704.614-2.802.614Zm13.176 0c-1.098 0-2.056-.196-2.875-.59-.803-.393-1.426-.909-1.868-1.548-.442-.655-.705-1.36-.787-2.113h.492c.082.573.287 1.147.614 1.72.344.573.877 1.065 1.598 1.474.737.41 1.679.615 2.826.615.917 0 1.728-.172 2.433-.516.704-.361 1.245-.836 1.622-1.426.376-.589.565-1.245.565-1.966 0-.933-.213-1.671-.639-2.211-.426-.557-.958-.967-1.597-1.229-.623-.262-1.467-.533-2.532-.811-1.114-.295-2.007-.59-2.678-.885-.672-.295-1.245-.745-1.721-1.351-.458-.623-.688-1.458-.688-2.507 0-.754.205-1.458.615-2.113.426-.672 1.024-1.205 1.794-1.598.786-.393 1.679-.59 2.678-.59 1.016 0 1.893.181 2.63.541.737.361 1.311.819 1.72 1.376.426.541.705 1.114.836 1.721h-.492c-.115-.476-.352-.959-.713-1.45-.36-.492-.876-.901-1.548-1.229-.671-.344-1.482-.516-2.433-.516-.835 0-1.605.164-2.31.491-.688.312-1.245.762-1.671 1.352-.409.573-.614 1.245-.614 2.015 0 .95.213 1.712.639 2.286.442.557.983.974 1.622 1.253.639.262 1.491.532 2.556.811 1.114.295 1.998.59 2.654.884.671.279 1.237.721 1.695 1.328.459.589.688 1.4.688 2.432 0 .721-.196 1.418-.589 2.089-.377.672-.951 1.221-1.721 1.647-.77.409-1.704.614-2.801.614Zm55.941 0c-1.098 0-2.056-.196-2.875-.59-.803-.393-1.426-.909-1.868-1.548-.442-.655-.704-1.36-.786-2.113h.491c.082.573.287 1.147.615 1.72.344.573.876 1.065 1.597 1.474.737.41 1.679.615 2.826.615.917 0 1.728-.172 2.433-.516.704-.361 1.245-.836 1.622-1.426.377-.589.565-1.245.565-1.966 0-.933-.213-1.671-.639-2.211-.426-.557-.958-.967-1.597-1.229-.623-.262-1.467-.533-2.531-.811-1.115-.295-2.007-.59-2.679-.885-.672-.295-1.245-.745-1.72-1.351-.459-.623-.688-1.458-.688-2.507 0-.754.204-1.458.614-2.113.426-.672 1.024-1.205 1.794-1.598.786-.393 1.679-.59 2.679-.59 1.015 0 1.892.181 2.629.541.737.361 1.311.819 1.72 1.376.426.541.705 1.114.836 1.721h-.492c-.114-.476-.352-.959-.712-1.45-.361-.492-.877-.901-1.549-1.229-.671-.344-1.482-.516-2.432-.516-.836 0-1.606.164-2.311.491-.688.312-1.245.762-1.671 1.352-.409.573-.614 1.245-.614 2.015 0 .95.213 1.712.639 2.286.442.557.983.974 1.622 1.253.639.262 1.491.532 2.556.811 1.114.295 1.998.59 2.654.884.671.279 1.237.721 1.695 1.328.459.589.689 1.4.689 2.432 0 .721-.197 1.418-.59 2.089-.377.672-.951 1.221-1.721 1.647-.77.409-1.703.614-2.801.614Zm18.336-12.705c0 1.589-.467 2.777-1.401 3.563-.934.787-2.31 1.18-4.128 1.18h-3.883v7.79h-.492v-17.301h4.375c1.9 0 3.293.418 4.177 1.254.901.835 1.352 2.007 1.352 3.514Zm-5.529 4.227c1.769 0 3.047-.369 3.833-1.106.803-.737 1.204-1.778 1.204-3.121 0-1.409-.393-2.474-1.179-3.195-.786-.721-2.073-1.081-3.858-1.081h-3.883v8.503h3.883Zm16.251 8.503c-1.589 0-3.014-.369-4.276-1.106-1.245-.754-2.219-1.802-2.924-3.146-.704-1.343-1.057-2.867-1.057-4.571 0-1.703.353-3.227 1.057-4.571.705-1.343 1.679-2.383 2.924-3.121 1.262-.753 2.687-1.13 4.276-1.13 1.59 0 3.007.377 4.252 1.13 1.261.738 2.244 1.778 2.949 3.121.704 1.344 1.057 2.868 1.057 4.571 0 1.704-.353 3.228-1.057 4.571-.705 1.344-1.688 2.392-2.949 3.146-1.245.737-2.662 1.106-4.252 1.106Zm0-.443c1.442 0 2.753-.335 3.932-1.007 1.18-.688 2.106-1.663 2.777-2.925.688-1.277 1.032-2.76 1.032-4.448 0-1.687-.344-3.162-1.032-4.423-.671-1.278-1.597-2.253-2.777-2.924-1.179-.689-2.49-1.033-3.932-1.033-1.441 0-2.752.344-3.932 1.033-1.179.671-2.113 1.646-2.801 2.924-.672 1.261-1.008 2.736-1.008 4.423 0 1.688.336 3.171 1.008 4.448.688 1.262 1.622 2.237 2.801 2.925 1.18.672 2.491 1.007 3.932 1.007Zm21.282.246-4.62-7.544h-4.35v7.544h-.491v-17.301h4.325c1.9 0 3.309.435 4.227 1.303.934.868 1.4 2.056 1.4 3.563 0 1.393-.393 2.507-1.179 3.342-.787.836-1.909 1.336-3.367 1.5l4.669 7.593h-.614Zm-5.087-8.011c1.687 0 2.949-.402 3.785-1.204.851-.803 1.277-1.876 1.277-3.22 0-2.916-1.703-4.374-5.111-4.374h-3.834v8.798h3.883Zm17.747-9.29v.443h-5.038v16.858h-.491v-16.858h-5.038v-.443h10.567Zm7.316 17.473c-1.097 0-2.056-.196-2.875-.59-.803-.393-1.425-.909-1.868-1.548-.442-.655-.704-1.36-.786-2.113h.492c.081.573.286 1.147.614 1.72.344.573.876 1.065 1.597 1.474.738.41 1.68.615 2.826.615.918 0 1.729-.172 2.433-.516.705-.361 1.245-.836 1.622-1.426.377-.589.565-1.245.565-1.966 0-.933-.213-1.671-.639-2.211-.425-.557-.958-.967-1.597-1.229-.622-.262-1.466-.533-2.531-.811-1.114-.295-2.007-.59-2.679-.885-.671-.295-1.245-.745-1.72-1.351-.459-.623-.688-1.458-.688-2.507 0-.754.205-1.458.614-2.113.426-.672 1.024-1.205 1.794-1.598.787-.393 1.68-.59 2.679-.59 1.016 0 1.892.181 2.629.541.738.361 1.311.819 1.721 1.376.426.541.704 1.114.835 1.721h-.491c-.115-.476-.353-.959-.713-1.45-.36-.492-.876-.901-1.548-1.229-.672-.344-1.483-.516-2.433-.516-.836 0-1.606.164-2.31.491-.688.312-1.245.762-1.671 1.352-.41.573-.615 1.245-.615 2.015 0 .95.213 1.712.639 2.286.443.557.983.974 1.622 1.253.639.262 1.491.532 2.556.811 1.114.295 1.999.59 2.654.884.672.279 1.237.721 1.696 1.328.459.589.688 1.4.688 2.432 0 .721-.197 1.418-.59 2.089-.377.672-.95 1.221-1.72 1.647-.77.409-1.704.614-2.802.614ZM251.683 178.042l-2.099 4.932-1.837-1.293 3.936-3.639Z" fill="#000"/>
</svg>
